<?xml version="1.0"?>
<svg width="812.67" height="230" xmlns="http://www.w3.org/2000/svg" xmlns:svg="http://www.w3.org/2000/svg">
 <!-- Created with SVG-edit - http://svg-edit.googlecode.com/ -->
 <g>
  <title>Layer 1</title>
  <g id="Bean">
   <path id="svg_2" class="cls-2" d="m403.557343,165.443359l-1.679993,4.449997l-0.649994,2.339996l-0.320007,1.169998c-0.100006,0.389999 -0.160004,0.790009 -0.23999,1.190002l-0.430023,2.389999c-0.100006,0.800003 -0.160004,1.610001 -0.23999,2.410004a21.25,21.25 0 0 0 -0.119995,2.410004c0,0.809998 -0.050018,1.610001 0,2.410004a39.490002,39.490002 0 0 0 1.540009,9.439987a30.92,30.92 0 0 0 3.879974,8.580002a49.060001,49.060001 0 0 1 -1.759979,-9c-0.180023,-1.5 -0.27002,-3 -0.300018,-4.5l0,-2.23999l0.110016,-2.230011c0,-0.73999 0.139984,-1.479996 0.209991,-2.209991l0.110016,-1.100006c0,-0.369995 0.119995,-0.729996 0.179993,-1.089996l0.369995,-2.180008l0.519989,-2.149994c0.089996,-0.360001 0.160004,-0.720001 0.26001,-1.069992l0.329987,-1.050003l0.660004,-2.100006l1.649994,-4.179993a42,42 0 0 0 3.070007,-19a40.240002,40.240002 0 0 0 -5.410004,-18a62.639999,62.639999 0 0 1 2,18.069992a49.470001,49.470001 0 0 1 -3.73999,17.240005l0,0z"/>
   <path id="svg_3" class="cls-2" d="m461.077332,144.563354c-1.630005,-11.580002 -6.609985,-21.830002 -12.72998,-31.619995c-7.540009,-12.050003 -17.110016,-22.520004 -26.450012,-33.160004c-4.089996,-4.659996 -7.149994,-9.839996 -8.25,-16.059994s1.119995,-12.59 6,-15.450001c2.190002,-1.279999 4.799988,-1.84 7.280029,-2.760002a31.299999,31.299999 0 0 0 -17.690002,-5a30.65,30.65 0 0 0 -20.450012,8.93c-10.809998,10.349998 -12.940002,27.610001 -7.880005,41c0.580017,1.520004 1.25,3 2.160004,5.160004c-10.309998,-3 -19.51001,-2.300003 -27.950012,4.479996c0.819977,0.25 1.299988,0.430008 1.789978,0.540009c5.880035,1.25 9.230011,5 10.720032,10.669998a14.88,14.88 0 0 1 0.449982,2.62999a55.759998,55.759998 0 0 0 30.130005,96.970001c-13.459991,-4.759995 -23.47998,-22.720001 -23.47998,-44.160004c0,-25.079987 13.690002,-45.409988 30.579987,-45.409988s30.580017,20.330002 30.580017,45.409988c0,21.360001 -9.930023,39.270004 -23.330017,44.160004a55.830002,55.830002 0 0 0 47.080017,-43.610001a54.419998,54.419998 0 0 0 1.439972,-22.720001z"/>
  </g>
 </g>
</svg>